HIERARCHY
ROOT Hips
{
	OFFSET 0.00000 0.00000 0.00000
	CHANNELS 6 Xposition Yposition Zposition Zrotation Yrotation Xrotation 
	JOINT LHipJoint
	{
		OFFSET 0 0 0
		CHANNELS 3 Zrotation Yrotation Xrotation
		JOINT LeftHip
		{
			OFFSET 1.62329 -1.80800 0.67318
			CHANNELS 3 Zrotation Yrotation Xrotation
			JOINT LeftKnee
			{
				OFFSET 2.57139 -7.06484 0.00000
				CHANNELS 3 Zrotation Yrotation Xrotation
				JOINT LeftAnkle
				{
					OFFSET 2.52017 -6.92413 0.00000
					CHANNELS 3 Zrotation Yrotation Xrotation
					JOINT LeftToe
					{
						OFFSET 0.23295 -0.64001 2.10214
						CHANNELS 3 Zrotation Yrotation Xrotation
						End Site
						{
							OFFSET 0.00000 -0.00000 1.10139
						}
					}
				}
			}
		}
	}
	JOINT RHipJoint
	{
		OFFSET 0 0 0
		CHANNELS 3 Zrotation Yrotation Xrotation
		JOINT RightHip
		{
			OFFSET -1.48061 -1.80800 0.67318
			CHANNELS 3 Zrotation Yrotation Xrotation
			JOINT RightKnee
			{
				OFFSET -2.63258 -7.23296 0.00000
				CHANNELS 3 Zrotation Yrotation Xrotation
				JOINT RightAnkle
				{
					OFFSET -2.54779 -7.00000 0.00000
					CHANNELS 3 Zrotation Yrotation Xrotation
					JOINT RightToe
					{
						OFFSET -0.23067 -0.63376 2.12161
						CHANNELS 3 Zrotation Yrotation Xrotation
						End Site
						{
							OFFSET -0.00000 -0.00000 1.11000
						}
					}
				}
			}
		}
	}
	JOINT lowerback
	{
		OFFSET 0 0 0
		CHANNELS 3 Zrotation Yrotation Xrotation
		JOINT Chest
		{
			OFFSET -0.02108 2.07573 -0.16981
			CHANNELS 3 Zrotation Yrotation Xrotation
			JOINT Chest2
			{
				OFFSET 0.05070 2.08439 -0.03141
				CHANNELS 3 Zrotation Yrotation Xrotation
				JOINT lowerneck
				{
					OFFSET 0 0 0
					CHANNELS 3 Zrotation Yrotation Xrotation
					JOINT Neck
					{
						OFFSET -0.10731 1.60408 0.31370
						CHANNELS 3 Zrotation Yrotation Xrotation
						JOINT Head
						{
							OFFSET 0.08411 1.65679 -0.30822
							CHANNELS 3 Zrotation Yrotation Xrotation
							End Site
							{
								OFFSET 0.03911 1.69149 -0.14146
							}
						}
					}
				}
				JOINT LeftCollar
				{
					OFFSET 0 0 0
					CHANNELS 3 Zrotation Yrotation Xrotation
					JOINT LeftShoulder
					{
						OFFSET 3.52315 0.73219 -0.54694
CHANNELS 3 Zrotation Xrotation Yrotation
						JOINT LeftElbow
						{
OFFSET 0 -5.324620 -0.000000
CHANNELS 3 Zrotation Xrotation Yrotation
							JOINT LeftWrist
							{
OFFSET 0 -3.484020 -0.000000
CHANNELS 3 Zrotation Xrotation Yrotation
								JOINT lhand
								{
									OFFSET 0 0 0
CHANNELS 3 Zrotation Xrotation Yrotation
									JOINT LFingers
									{
OFFSET 0 -0.572480 -0.000000
CHANNELS 3 Zrotation Xrotation Yrotation
										End Site
										{
OFFSET 0 -0.461540 -0.000000
										}
									}
								}
								JOINT LThumb
								{
OFFSET 0 0.000000 0.000000
CHANNELS 3 Zrotation Xrotation Yrotation
									End Site
									{
OFFSET 0 -0.468590 0.468590
									}
								}
							}
						}
					}
				}
				JOINT RightCollar
				{
					OFFSET 0 0 0
					CHANNELS 3 Zrotation Yrotation Xrotation
					JOINT RightShoulder
					{
						OFFSET -3.41766 0.93592 -0.10019
CHANNELS 3 Zrotation Xrotation Yrotation
						JOINT RightElbow
						{
OFFSET 0 -5.335890 -0.000000
CHANNELS 3 Zrotation Xrotation Yrotation
							JOINT RightWrist
							{
OFFSET 0 -3.641340 -0.000000
CHANNELS 3 Zrotation Xrotation Yrotation
								JOINT rhand
								{
									OFFSET 0 0 0
CHANNELS 3 Zrotation Xrotation Yrotation
									JOINT RFingers
									{
OFFSET 0 -0.734810 -0.000000
CHANNELS 3 Zrotation Xrotation Yrotation
										End Site
										{
OFFSET 0 -0.592420 -0.000000
										}
									}
								}
								JOINT RThumb
								{
OFFSET 0 0.000000 0.000000
CHANNELS 3 Zrotation Xrotation Yrotation
									End Site
									{
OFFSET 0 -0.601470 0.601470
									}
								}
							}
						}
					}
				}
			}
		}
	}
}
MOTION
Frames: 6
Frame Time: 0.008333333333333333
0.833900 17.997000 -0.811600 0.649500 -28.728100 2.907700 0.000000 0.000000 0.000000 -22.639400 -0.459700 -4.159200 0.698500 5.342300 14.887600 0.320900 1.576900 -11.394000 0.353200 -3.818200 -10.565700 0.000000 0.000000 0.000000 11.192300 6.209500 -8.842600 -1.379700 -7.432700 21.003800 -0.581300 -6.257100 -18.031600 -0.040800 -1.303700 3.585000 -2.905800 0.445600 0.205100 0.854900 0.587700 -0.065900 2.503500 0.298400 -0.220800 -8.240500 1.236200 -16.689000 -0.521200 4.787700 39.875100 2.085300 0.445300 17.305000 0.000000 -0.000000 0.000000 6.203000 -3.272800 -61.579800 76.245500 -59.272900 48.117300 19.565400 -6.949000 -22.009200 0.000000 0.000000 0.000000 -7.125000 0.000000 0.000000 -9.617500 52.944000 1.893700 0.000000 -0.000000 0.000000 -24.530100 -21.093300 53.193000 -126.767500 -54.218800 -91.223400 -20.419300 1.955900 -19.138100 0.000000 0.000000 0.000000 7.125000 0.000000 -0.000000 5.065000 9.723800 4.153500
0.829883 17.996247 -0.808673 0.704841 -28.624736 2.804231 0.000000 0.000000 0.000000 -22.677762 -0.416145 -4.023033 0.690800 5.313200 14.804200 0.319453 1.466960 -11.314117 0.338511 -3.738945 -10.343370 0.000000 0.000000 0.000000 11.158969 6.090603 -8.745865 -1.381496 -7.437273 21.017545 -0.587433 -6.216826 -18.068164 -0.035347 -1.210133 3.327284 -3.080681 0.427692 0.404219 0.915498 0.556815 -0.118945 2.662525 0.286911 -0.387088 -8.058486 1.233571 -16.834271 -0.653975 4.797320 39.977855 1.999643 0.449317 17.412068 0.000000 0.000000 0.000000 6.027104 -3.107756 -61.423490 77.672238 -59.416865 49.344815 20.050835 -6.385427 -22.004799 0.000000 0.000000 0.000000 -7.125000 0.000000 0.000000 -9.127695 53.028067 1.814656 0.000000 0.000000 0.000000 -23.787981 -20.137664 52.301928 -126.295215 -54.384344 -90.839779 -20.568642 1.485434 -18.046795 0.000000 0.000000 0.000000 7.125000 0.000000 0.000000 4.896672 10.846324 3.902603
0.826573 17.996312 -0.809025 0.710495 -28.526344 2.760479 0.000000 0.000000 0.000000 -22.664128 -0.386813 -3.987566 0.690800 5.313412 14.804678 0.320343 1.367790 -11.278160 0.347261 -3.786158 -10.475849 0.000000 0.000000 0.000000 11.177894 6.044933 -8.667341 -1.379463 -7.432060 21.001981 -0.593215 -6.230023 -18.142307 -0.026635 -1.053522 2.896093 -3.288000 0.403009 0.605441 1.041019 0.515979 -0.189454 2.907051 0.271540 -0.572552 -8.424644 1.146573 -16.338822 -0.476614 4.632097 39.560069 2.096867 0.385144 17.043663 0.000000 0.000000 0.000000 5.765807 -2.976452 -61.235887 79.120322 -59.546576 50.592341 20.301380 -5.954351 -22.170709 0.000000 0.000000 0.000000 -7.125000 0.000000 0.000000 -8.936893 53.244209 1.823608 0.000000 0.000000 0.000000 -23.160818 -19.193216 51.402679 -125.681840 -54.594768 -90.340456 -20.650342 1.160354 -17.169178 0.000000 0.000000 0.000000 7.125000 0.000000 0.000000 4.789383 11.756744 3.726593
0.823728 17.997057 -0.807728 0.700835 -28.470745 2.788068 0.000000 0.000000 0.000000 -22.645268 -0.416920 -4.015331 0.692870 5.321324 14.827318 0.322115 1.346215 -11.297208 0.361543 -3.862463 -10.690086 0.000000 0.000000 0.000000 11.204114 6.064595 -8.652832 -1.378422 -7.429426 20.994078 -0.603495 -6.249100 -18.270304 -0.031178 -1.138568 3.130267 -3.354291 0.381046 0.615336 1.081561 0.485937 -0.204700 2.986323 0.257350 -0.592440 -8.472480 1.113092 -16.193168 -0.402539 4.537627 39.388408 2.115702 0.362787 16.912090 0.000000 0.000000 0.000000 5.622229 -2.966839 -61.060743 80.647014 -59.665925 51.909229 20.770468 -5.487494 -22.328491 0.000000 0.000000 0.000000 -7.125000 0.000000 0.000000 -8.520237 53.493603 1.789528 0.000000 0.000000 0.000000 -22.307097 -18.332689 50.479635 -124.921367 -54.848682 -89.719658 -20.611434 0.976879 -16.632003 0.000000 0.000000 0.000000 7.125000 0.000000 0.000000 4.784642 12.325783 3.665987
0.821196 17.996975 -0.806107 0.669571 -28.409144 2.808251 0.000000 0.000000 0.000000 -22.598355 -0.423652 -4.052982 0.697741 5.339589 14.879751 0.323862 1.268900 -11.286652 0.358619 -3.847286 -10.647353 0.000000 0.000000 0.000000 11.237840 5.930799 -8.682050 -1.379161 -7.431314 20.999635 -0.604927 -6.168309 -18.223293 -0.033407 -1.179352 3.242353 -3.372757 0.363320 0.618206 1.126669 0.462307 -0.205013 3.043489 0.245720 -0.593123 -8.582466 1.070427 -16.058792 -0.284962 4.435662 39.216607 2.163682 0.334103 16.781959 0.000000 0.000000 0.000000 5.492978 -3.021381 -60.983139 82.254061 -59.771660 53.296991 21.359694 -4.765832 -22.566244 0.000000 0.000000 0.000000 -7.125000 0.000000 0.000000 -8.008096 53.849982 1.750906 0.000000 0.000000 0.000000 -21.395630 -17.434727 49.495284 -124.043857 -55.132147 -89.000958 -20.441541 1.090934 -16.099914 0.000000 0.000000 0.000000 7.125000 0.000000 0.000000 4.869558 12.905298 3.672557
0.817347 17.996273 -0.804275 0.650483 -28.370707 2.813235 0.000000 0.000000 0.000000 -22.576180 -0.461177 -4.051236 0.702513 5.357321 14.930607 0.324996 1.274094 -11.309155 0.358442 -3.846146 -10.644296 0.000000 0.000000 0.000000 11.259860 5.822068 -8.700528 -1.382614 -7.440185 21.026188 -0.593686 -6.147915 -18.083853 -0.023386 -0.986969 2.713042 -3.404220 0.364456 0.619567 1.150655 0.463812 -0.181825 3.086036 0.245874 -0.570695 -8.644336 1.032669 -15.840085 -0.225452 4.328525 38.831444 2.171250 0.316372 16.522367 0.000000 0.000000 0.000000 5.409481 -3.146996 -60.874779 83.984667 -59.860931 54.793043 21.691211 -4.012541 -23.015152 0.000000 0.000000 0.000000 -7.125000 0.000000 0.000000 -7.835796 54.377613 1.813605 0.000000 0.000000 0.000000 -20.579081 -16.453595 48.477154 -123.017639 -55.449333 -88.156989 -20.436139 1.452610 -15.729728 0.000000 0.000000 0.000000 7.125000 0.000000 0.000000 4.854582 13.295055 3.621488
